<?xml version="1.0" encoding="utf-8"?>
<!-- Generator: Adobe Illustrator 28.1.0, SVG Export Plug-In . SVG Version: 6.00 Build 0)  -->
<svg version="1.1" xmlns="http://www.w3.org/2000/svg" xmlns:xlink="http://www.w3.org/1999/xlink" x="0px" y="0px"
	 viewBox="0 0 1024 512" style="enable-background:new 0 0 1024 512;" xml:space="preserve">
<style type="text/css">
	.st0{fill:#333333;}
	.st1{fill:#FFA602;}
	.st2{fill:#EEEEEE;}
</style>
<g id="Layer_1">
	<path class="st0" d="M573.6,352c0,88.4,71.6,160,160,160h64c88.4,0,160-71.6,160-160V224h-384V352z M749.6,0h-16
		c-88.4,0-160,71.6-160,160v32h176V0z M797.6,0h-16v192h176v-32C957.6,71.6,886,0,797.6,0z"/>
	<path class="st1" d="M749.6,0h-16c-88.4,0-160,71.6-160,160v32h176V0z"/>
	<path class="st0" d="M58.5,352c0,88.4,71.6,160,160,160h64c88.4,0,160-71.6,160-160V224h-384V352z M234.5,0h-16
		c-88.4,0-160,71.6-160,160v32h176V0z M282.5,0h-16v192h176v-32C442.5,71.6,370.9,0,282.5,0z"/>
</g>
<g id="Layer_2">
	<path class="st2" d="M58.5,352c0,88.4,71.6,160,160,160h64c88.4,0,160-71.6,160-160V224h-384V352z M234.5,0h-16
		c-88.4,0-160,71.6-160,160v32h176V0z M282.5,0h-16v192h176v-32C442.5,71.6,370.9,0,282.5,0z"/>
	<path class="st2" d="M573.6,352c0,88.4,71.6,160,160,160h64c88.4,0,160-71.6,160-160V224h-384V352z M749.6,0h-16
		c-88.4,0-160,71.6-160,160v32h176V0z M797.6,0h-16v192h176v-32C957.6,71.6,886,0,797.6,0z"/>
	<path class="st1" d="M749.6,0h-16c-88.4,0-160,71.6-160,160v32h176V0z"/>
</g>
</svg>
